<svg viewBox="0 0 24 24" xmlns="http://www.w3.org/2000/svg"><g display="inline"><path d="M11.945 294.6c-2.423-1.679-5.725-1.82-7.955.296-2.556 2.427-2.66 6.494-.232 9.05l7.53 7.93a1 1 0 0 0 1.452-.003c2.298-2.455 5.525-5.817 7.402-7.865 2.42-2.563 2.416-6.732-.148-9.15-2.268-2.269-5.374-2.036-8.049-.258zm6.676 1.712a4.383 4.383 0 0 1 .182 6.221 983.602 983.602 0 0 1-6.793 7.201l-6.803-7.166a4.385 4.385 0 0 1 .16-6.222c1.629-1.546 4.2-1.37 5.955.185a1 1 0 0 0 1.332-.006c1.986-1.554 4.005-2.01 5.967-.212z" style="line-height:normal;font-variant-ligatures:normal;font-variant-position:normal;font-variant-caps:normal;font-variant-numeric:normal;font-variant-alternates:normal;font-variant-east-asian:normal;font-feature-settings:normal;font-variation-settings:normal;text-indent:0;text-align:start;text-decoration-line:none;text-decoration-style:solid;text-decoration-color:#000;text-transform:none;text-orientation:mixed;white-space:normal;shape-padding:0;shape-margin:0;inline-size:0;isolation:auto;mix-blend-mode:normal;solid-color:#000;solid-opacity:1" transform="translate(.03 -290.7)" color="#000000" font-style="normal" font-variant="normal" font-weight="400" font-stretch="normal" font-size="medium" font-family="sans-serif" text-decoration="none" letter-spacing="normal" word-spacing="normal" writing-mode="lr-tb" direction="ltr" dominant-baseline="auto" baseline-shift="baseline" text-anchor="start" clip-rule="nonzero" display="inline" overflow="visible" visibility="visible" opacity="1" color-interpolation="sRGB" color-interpolation-filters="linearRGB" vector-effect="none" fill="#6c66d9" fill-opacity="1" fill-rule="nonzero" stroke="none" stroke-linecap="round" stroke-linejoin="round" stroke-miterlimit="4" stroke-dasharray="none" stroke-dashoffset="0" stroke-opacity="1" color-rendering="auto" image-rendering="auto" shape-rendering="auto" text-rendering="auto" enable-background="accumulate" stop-color="#6c66d9" stop-opacity="1" class="fill-000000 stop-color-000000"></path></g></svg>